<?xml version="1.0" encoding="UTF-8"?>
<svg width="440px" height="140px" viewBox="0 0 440 140" version="1.1" xmlns="http://www.w3.org/2000/svg" xmlns:xlink="http://www.w3.org/1999/xlink">
    <title>Voyager</title>
    <g id="Logo" stroke="none" stroke-width="1" fill="none" fill-rule="evenodd">
        <path d="M134.477262,43.8182373 L150.670428,91.2045557 L151.323837,91.2045557 L167.517003,43.8182373 L177.00563,43.8182373 L156.06815,102 L145.926114,102 L124.988634,43.8182373 L134.477262,43.8182373 Z M194.810204,102.880681 C182.50908,102.880681 174.469315,93.8750077 174.469315,80.3807024 C174.469315,66.8011699 182.50908,57.7954967 194.810204,57.7954967 C207.111329,57.7954967 215.151094,66.8011699 215.151094,80.3807024 C215.151094,93.8750077 207.111329,102.880681 194.810204,102.880681 Z M194.838613,95.750006 C202.82156,95.750006 206.571557,88.7329672 206.571557,80.3522934 C206.571557,72.0000286 202.82156,64.8977627 194.838613,64.8977627 C186.798848,64.8977627 183.048852,72.0000286 183.048852,80.3522934 C183.048852,88.7329672 186.798848,95.750006 194.838613,95.750006 Z M224.234081,118.960211 C221.592038,118.960211 219.461358,118.39203 218.552268,117.965894 L220.59772,110.920446 C225.285216,112.170445 228.324986,111.687491 230.455666,106.005678 L231.705664,102.568181 L215.739771,58.363678 L224.830671,58.363678 L235.881797,92.227282 L236.336342,92.227282 L247.387468,58.363678 L256.506777,58.363678 L238.324976,108.36363 C235.853388,115.153397 231.279528,118.960211 224.234081,118.960211 Z M273.061346,102.965908 C264.765899,102.965908 258.317042,98.2500036 258.317042,89.6704663 C258.317042,79.755703 266.782943,77.5966142 275.049981,76.630706 C282.890882,75.721616 286.072697,75.7784341 286.072697,72.6818461 L286.072697,72.4829827 C286.072697,67.5398056 283.2602,64.6704901 277.777251,64.6704901 C272.067029,64.6704901 268.885214,67.6534418 267.635215,70.7500298 L259.652268,68.9318497 C262.493174,60.9773118 269.765895,57.7954967 277.663614,57.7954967 C284.595426,57.7954967 294.595416,60.3239034 294.595416,73.0227549 L294.595416,102 L286.29997,102 L286.29997,96.0340966 L285.959061,96.0340966 C284.339744,99.3011389 280.277248,102.965908 273.061346,102.965908 Z M274.907935,96.1477329 C281.981792,96.1477329 286.101106,91.4318283 286.101106,86.2613786 L286.101106,80.636384 C284.879517,81.8579738 278.345432,82.5966094 275.589753,82.9659272 C270.674985,83.6193357 266.640898,85.2386523 266.640898,89.7841026 C266.640898,93.988644 270.106803,96.1477329 274.907935,96.1477329 Z M320.297704,119.187484 C309.871578,119.187484 304.04772,114.642033 301.746586,109.386357 L309.047715,106.374996 C310.553395,108.789766 313.309075,112.340899 320.382932,112.340899 C326.831789,112.340899 331.519285,109.357948 331.519285,102.624999 L331.519285,94.0454621 L330.979512,94.0454621 C329.445423,96.8295504 326.348835,101.346592 318.337479,101.346592 C308.024989,101.346592 300.09886,93.9318259 300.09886,80.0113846 C300.09886,66.1193524 307.854534,57.7954967 318.394297,57.7954967 C326.519289,57.7954967 329.53065,62.7386738 331.036331,65.4375349 L331.66133,65.4375349 L331.66133,58.363678 L339.985186,58.363678 L339.985186,102.965908 C339.985186,114.102261 331.405648,119.187484 320.297704,119.187484 Z M320.212477,94.3011437 C327.542016,94.3011437 331.604512,88.9034216 331.604512,79.8977484 C331.604512,71.0625295 327.627243,65.0113989 320.212477,65.0113989 C312.54203,65.0113989 308.678397,71.5170745 308.678397,79.8977484 C308.678397,88.4772856 312.627257,94.3011437 320.212477,94.3011437 Z M366.284068,102.880681 C353.414762,102.880681 345.517042,94.0170531 345.517042,80.4659296 C345.517042,67.0568515 353.528398,57.7954967 365.687477,57.7954967 C375.573831,57.7954967 385.005641,63.9602636 385.005641,79.727294 L385.005641,82.7386547 L353.982943,82.7386547 C354.210215,91.1477376 359.096574,95.8636422 366.369295,95.8636422 C371.198836,95.8636422 374.892014,93.7613715 376.426103,89.6420572 L384.465868,91.0909195 C382.534052,98.1931854 375.801104,102.880681 366.284068,102.880681 Z M354.011352,76.3750244 L376.681785,76.3750244 C376.653376,69.6988944 372.335198,64.8125355 365.744295,64.8125355 C358.840893,64.8125355 354.352261,70.1818485 354.011352,76.3750244 Z M390.565904,102 L390.565904,58.363678 L398.776123,58.363678 L398.776123,65.2954895 L399.230668,65.2954895 C400.821576,60.607994 405.139753,57.7102695 410.310203,57.7102695 C412.696564,57.7102695 414.571563,58.3352689 416.020425,59.3011771 L413.293155,66.403443 C412.270428,65.8920799 410.992021,65.5511711 409.344295,65.5511711 C403.463619,65.5511711 399.060214,69.6704854 399.060214,75.3522981 L399.060214,102 L390.565904,102 Z" id="Voyager" fill="#25434C" fill-rule="nonzero"></path>
        <g id="Icon/Colour" transform="translate(19.000000, 19.000000)">
            <path d="M30.9276331,7.22194673 L42.382389,15.4439705 C43.382285,16.1616783 43.8423606,17.4173106 43.5428655,18.6111277 L25.5826307,90.2024134 C25.3849735,90.9902946 24.8762703,91.6643472 24.1728011,92.0704954 L23.9235953,92.2143744 C23.5144015,92.4506225 22.9911675,92.3104224 22.7549193,91.9012286 C22.6735562,91.7603035 22.6340716,91.5990969 22.6410979,91.4365224 L26.181078,9.52957212 C26.2526197,7.87426314 27.6525087,6.59036608 29.3078177,6.66190776 C29.8907279,6.68710086 30.453642,6.88172418 30.9276331,7.22194673 Z" id="Rectangle-Copy-2" fill="#2FBB7A" style="mix-blend-mode: multiply;" transform="translate(33.306445, 48.490289) scale(1, -1) rotate(20.000000) translate(-33.306445, -48.490289) "></path>
            <path d="M63.7912028,9.95637971 L76.0069273,18.2684621 C77.0493323,18.9777574 77.5369986,20.2631448 77.2274016,21.4853795 L59.0438349,93.2709117 C58.8334933,94.1013035 58.2782039,94.8021703 57.5179294,95.1968562 L57.3565784,95.2806193 C56.9201854,95.5071667 56.3827661,95.3370531 56.1562188,94.9006601 C56.0852782,94.7640089 56.0509895,94.6112955 56.0567011,94.4574335 L59.1055894,12.3253616 C59.1670524,10.6696478 60.5590993,9.37725213 62.2148131,9.43871516 C62.7784935,9.45963998 63.3248552,9.63905762 63.7912028,9.95637971 Z" id="Rectangle-Copy-3" fill="#2F99BB" style="mix-blend-mode: multiply;" transform="translate(66.871514, 51.444939) rotate(20.000000) translate(-66.871514, -51.444939) "></path>
        </g>
    </g>
</svg>